<svg xmlns="http://www.w3.org/2000/svg" width="192" height="192" viewBox="0 0 192 192">
  <defs>
    <linearGradient id="bg" x1="0" y1="0" x2="1" y2="1">
      <stop offset="0%" stop-color="#ff6b9d"/>
      <stop offset="100%" stop-color="#c44dff"/>
    </linearGradient>
    <linearGradient id="cake" x1="0" y1="0" x2="0" y2="1">
      <stop offset="0%" stop-color="#f8b4d9"/>
      <stop offset="100%" stop-color="#e8739a"/>
    </linearGradient>
  </defs>
  <rect width="192" height="192" rx="32" fill="url(#bg)"/>
  <g transform="translate(96,96)">
    <!-- cake base -->
    <rect x="-40" y="10" width="80" height="25" rx="4" fill="url(#cake)"/>
    <rect x="-32" y="-5" width="64" height="20" rx="3" fill="#f0b8d0"/>
    <rect x="-24" y="-18" width="48" height="16" rx="3" fill="#ebc8d8"/>
    <!-- frosting -->
    <path d="M-24,-18 Q-12,-22 0,-18 Q12,-14 24,-18" fill="#fff8f0" stroke="none"/>
    <!-- candles -->
    <rect x="-15" y="-36" width="3" height="18" rx="1" fill="#89cff0"/>
    <rect x="-5" y="-36" width="3" height="18" rx="1" fill="#ffd700"/>
    <rect x="5" y="-36" width="3" height="18" rx="1" fill="#7cff7c"/>
    <rect x="15" y="-36" width="3" height="18" rx="1" fill="#ff6b9d"/>
    <!-- flames -->
    <ellipse cx="-13.5" cy="-38" rx="3" ry="4" fill="#ffd700"/>
    <ellipse cx="-3.5" cy="-38" rx="3" ry="4" fill="#ffd700"/>
    <ellipse cx="6.5" cy="-38" rx="3" ry="4" fill="#ffd700"/>
    <ellipse cx="16.5" cy="-38" rx="3" ry="4" fill="#ffd700"/>
    <!-- stars decoration -->
    <text x="-50" y="-50" font-size="14" fill="#ffd700" opacity="0.6">✨</text>
    <text x="35" y="-45" font-size="10" fill="#ffd700" opacity="0.6">🌟</text>
    <text x="-55" y="60" font-size="12" fill="rgba(255,255,255,0.4)">🎉</text>
    <text x="40" y="55" font-size="10" fill="rgba(255,255,255,0.4)">🎈</text>
  </g>
</svg>
